<svg xmlns="http://www.w3.org/2000/svg" viewBox="0 0 475.71 473.59"><defs><style>.cls-1,.cls-2{fill:none;}.cls-1,.cls-2,.cls-4,.cls-5{stroke:#000;stroke-miterlimit:10;}.cls-1{stroke-width:12.34px;}.cls-2{stroke-width:8.23px;}.cls-3{font-size:49.37px;font-family:BerlinSansFBDemi-Bold, Berlin Sans FB Demi;font-weight:700;}.cls-4{stroke-width:3.18px;}.cls-5{stroke-width:3.98px;}</style></defs><g id="Capa_2" data-name="Capa 2"><g id="Capa_3" data-name="Capa 3"><g id="Capa_5" data-name="Capa 5"><circle class="cls-1" cx="234.69" cy="234.69" r="228.52"/><circle class="cls-2" cx="234.69" cy="234.69" r="109.64"/></g><text class="cls-3" transform="matrix(0.98, -0.2, 0.2, 0.98, 267.46, 412.18)">E</text><text class="cls-3" transform="translate(299.04 405.25) rotate(-23.46)">X</text><text class="cls-3" transform="matrix(0.81, -0.59, 0.59, 0.81, 331.15, 390.85)">P</text><text class="cls-3" transform="matrix(0.66, -0.75, 0.75, 0.66, 360.75, 368.71)">R</text><text class="cls-3" transform="matrix(0.5, -0.87, 0.87, 0.5, 384.1, 341.39)">E</text><text class="cls-3" transform="translate(399.21 313.76) rotate(-69.85)">S</text><text class="cls-3" transform="matrix(0.21, -0.98, 0.98, 0.21, 407.11, 291.58)">S</text><text class="cls-3" transform="translate(411.5 269.11) rotate(-84.55)"> </text><text class="cls-3" transform="matrix(0.06, -1, 1, 0.06, 80.75, 249.62)">T</text><text class="cls-3" transform="translate(81.94 224.88) rotate(-76.99)">R</text><text class="cls-3" transform="translate(88.43 195.61) rotate(-66.11)">A</text><text class="cls-3" transform="translate(101.4 165.61) rotate(-54.42)">N</text><text class="cls-3" transform="matrix(0.71, -0.71, 0.71, 0.71, 122.44, 137.16)">S</text><text class="cls-3" transform="translate(135.69 123.13) rotate(-36.45)">P</text><text class="cls-3" transform="translate(160.09 104.61) rotate(-25.06)">O</text><text class="cls-3" transform="translate(192.31 89.68) rotate(-13.71)">R</text><text class="cls-3" transform="translate(221.61 82.65) rotate(-4.24)">T</text><text class="cls-3" transform="translate(246.71 81.12) rotate(1.98)"> </text></g><g id="Capa_7" data-name="Capa 7"><polygon class="cls-4" points="120.8 472.47 212.21 381.06 206.57 375.42 120.8 472.47"/><polygon class="cls-4" points="105.79 441.38 197.2 349.98 191.56 344.33 105.79 441.38"/><polygon class="cls-4" points="73.76 434.38 165.17 342.98 159.53 337.33 73.76 434.38"/></g><g id="Capa_2-2" data-name="Capa 2"><path class="cls-5" d="M369.75,50.21c-.42.09-12.34-5-21.76-2.3C337.31,48.13,323.54,64,323.54,64l-29.18,28.9a12.62,12.62,0,0,0-3,8.09,12.09,12.09,0,0,0,3.09,7.82l54.06,54.06-10.79,10.79L254.52,90.5,100.58,244.44,205.86,349.72l29.83-29.83a38.74,38.74,0,0,1,11.49-26.51,41.54,41.54,0,0,1,26.51-11.49l117.4-117.4s.17-15.18,11.5-26.51,26.62-11.61,26.62-11.61l24.8-24.8-27-27Zm29.83,51.7-21.25.9a19.71,19.71,0,0,0-8.21,2.53c-3.52,2.22-8.88,8-8.88,8l-19.6,19.54-32.05-32,31.18-31.06s5.12-5.06,10.91-6,12.93,2,12.93,2L414.51,87Z"/><path class="cls-5" d="M236.91,331.21a35.11,35.11,0,0,0,3.89,9.64,45.51,45.51,0,0,0,5.77,7.75l-7.69,7.66s-5.07,5.89-12.48,6.52c-8.56.71-14.19-6.87-14.19-6.87Z"/><path class="cls-5" d="M440.41,127.71a34,34,0,0,1,9.87,3.66,42.62,42.62,0,0,1,7.83,5.69l8.25-8.28s6.32-5.5,7.27-13.22c1.06-8.92-6.59-14.47-6.59-14.47Z"/><path class="cls-5" d="M285,283.1,392.3,175.82A38.08,38.08,0,0,0,402,193.21l-99.54,99.55a43.19,43.19,0,0,0-7.81-5.73A32.43,32.43,0,0,0,285,283.1Z"/><path class="cls-5" d="M443.66,141a25.65,25.65,0,0,0-7.73-2.72l0,0a23.82,23.82,0,0,0-5.34-.51,28.08,28.08,0,0,0-28.2,28.2,24.42,24.42,0,0,0,.51,5.34l0,0a26,26,0,0,0,2.72,7.73,28.11,28.11,0,0,0,5,6.83,27.55,27.55,0,0,0,6.77,5,28.81,28.81,0,0,0,5.06,2.08l0,0a31.07,31.07,0,0,0,5.29,1l0,0a28.3,28.3,0,0,0,30.79-30.78l0,0a32.13,32.13,0,0,0-1-5.28l0,0a28.81,28.81,0,0,0-2.08-5.06,27.6,27.6,0,0,0-5-6.78A28.07,28.07,0,0,0,443.66,141Zm-3.2,34.81a14,14,0,1,1,0-19.82A14,14,0,0,1,440.46,175.85Z"/><path class="cls-5" d="M443.66,141a27.4,27.4,0,0,0-7.73-2.72l0,0a30.86,30.86,0,0,0-5.34-.51,28.29,28.29,0,0,0-28.2,28.2,30.86,30.86,0,0,0,.51,5.34l0,0a27.51,27.51,0,0,0,2.72,7.73,28.11,28.11,0,0,0,5,6.83,27.55,27.55,0,0,0,6.77,5,25.91,25.91,0,0,0,5.06,2.08l0,0a26.16,26.16,0,0,0,5.29,1l0,0a28.23,28.23,0,0,0,30.79-30.78l0,0a26.88,26.88,0,0,0-1-5.28l0,0a25.91,25.91,0,0,0-2.08-5.06,27.6,27.6,0,0,0-5-6.78A28.07,28.07,0,0,0,443.66,141Zm-23.05,15a14,14,0,1,1,0,19.85A14,14,0,0,1,420.61,156Z"/><path class="cls-5" d="M288.3,296.46a26,26,0,0,0-7.73-2.73l0,0a24.42,24.42,0,0,0-5.34-.5A28,28,0,0,0,247,321.39a24.42,24.42,0,0,0,.5,5.34l0,0a26,26,0,0,0,2.73,7.73,27.62,27.62,0,0,0,5,6.83,27.3,27.3,0,0,0,6.77,5,28.81,28.81,0,0,0,5.06,2.08l0,0a32.45,32.45,0,0,0,5.29,1l0,0a28.29,28.29,0,0,0,30.78-30.78l0,0a32.45,32.45,0,0,0-1-5.29l0,0a28.81,28.81,0,0,0-2.08-5.06,27.05,27.05,0,0,0-5-6.77A27.62,27.62,0,0,0,288.3,296.46Zm-3.2,34.8a14,14,0,1,1,0-19.82A14,14,0,0,1,285.1,331.26Z"/><path class="cls-5" d="M288.3,296.46a27.42,27.42,0,0,0-7.73-2.73l0,0a30.85,30.85,0,0,0-5.34-.5A28.25,28.25,0,0,0,247,321.39a30.85,30.85,0,0,0,.5,5.34l0,0a28.17,28.17,0,0,0,14.53,19.54,26.16,26.16,0,0,0,5.06,2.08l0,0a27.12,27.12,0,0,0,5.29,1l0,0a28.23,28.23,0,0,0,30.78-30.78l0,0a27.12,27.12,0,0,0-1-5.29l0,0a26.16,26.16,0,0,0-2.08-5.06,27.05,27.05,0,0,0-5-6.77A27.62,27.62,0,0,0,288.3,296.46Zm-23.05,15a14,14,0,1,1,0,19.85A14,14,0,0,1,265.25,311.41Z"/></g></g></svg>